G04 EAGLE Gerber RS-274X export*
G75*
%MOMM*%
%FSLAX34Y34*%
%LPD*%
%INSilk screen CMP*%
%IPPOS*%
%AMOC8*
5,1,8,0,0,1.08239X$1,22.5*%
G01*
%ADD10C,0.152400*%
%ADD11C,0.203200*%
%ADD12C,0.025400*%
%ADD13C,0.101600*%
%ADD14C,0.127000*%
%ADD15C,0.120000*%
%ADD16C,0.254000*%


D10*
X0Y0D02*
X0Y266700D01*
X368300Y266700D01*
X368300Y0D01*
X0Y0D01*
X88900Y203200D02*
X88908Y203823D01*
X88931Y204446D01*
X88969Y205069D01*
X89022Y205690D01*
X89091Y206309D01*
X89175Y206927D01*
X89274Y207542D01*
X89388Y208155D01*
X89517Y208765D01*
X89661Y209372D01*
X89820Y209975D01*
X89994Y210573D01*
X90182Y211168D01*
X90385Y211757D01*
X90602Y212341D01*
X90833Y212920D01*
X91079Y213493D01*
X91339Y214060D01*
X91612Y214620D01*
X91899Y215173D01*
X92200Y215720D01*
X92514Y216258D01*
X92841Y216789D01*
X93181Y217311D01*
X93533Y217826D01*
X93899Y218331D01*
X94276Y218827D01*
X94666Y219314D01*
X95067Y219791D01*
X95480Y220258D01*
X95904Y220714D01*
X96339Y221161D01*
X96786Y221596D01*
X97242Y222020D01*
X97709Y222433D01*
X98186Y222834D01*
X98673Y223224D01*
X99169Y223601D01*
X99674Y223967D01*
X100189Y224319D01*
X100711Y224659D01*
X101242Y224986D01*
X101780Y225300D01*
X102327Y225601D01*
X102880Y225888D01*
X103440Y226161D01*
X104007Y226421D01*
X104580Y226667D01*
X105159Y226898D01*
X105743Y227115D01*
X106332Y227318D01*
X106927Y227506D01*
X107525Y227680D01*
X108128Y227839D01*
X108735Y227983D01*
X109345Y228112D01*
X109958Y228226D01*
X110573Y228325D01*
X111191Y228409D01*
X111810Y228478D01*
X112431Y228531D01*
X113054Y228569D01*
X113677Y228592D01*
X114300Y228600D01*
X114923Y228592D01*
X115546Y228569D01*
X116169Y228531D01*
X116790Y228478D01*
X117409Y228409D01*
X118027Y228325D01*
X118642Y228226D01*
X119255Y228112D01*
X119865Y227983D01*
X120472Y227839D01*
X121075Y227680D01*
X121673Y227506D01*
X122268Y227318D01*
X122857Y227115D01*
X123441Y226898D01*
X124020Y226667D01*
X124593Y226421D01*
X125160Y226161D01*
X125720Y225888D01*
X126273Y225601D01*
X126820Y225300D01*
X127358Y224986D01*
X127889Y224659D01*
X128411Y224319D01*
X128926Y223967D01*
X129431Y223601D01*
X129927Y223224D01*
X130414Y222834D01*
X130891Y222433D01*
X131358Y222020D01*
X131814Y221596D01*
X132261Y221161D01*
X132696Y220714D01*
X133120Y220258D01*
X133533Y219791D01*
X133934Y219314D01*
X134324Y218827D01*
X134701Y218331D01*
X135067Y217826D01*
X135419Y217311D01*
X135759Y216789D01*
X136086Y216258D01*
X136400Y215720D01*
X136701Y215173D01*
X136988Y214620D01*
X137261Y214060D01*
X137521Y213493D01*
X137767Y212920D01*
X137998Y212341D01*
X138215Y211757D01*
X138418Y211168D01*
X138606Y210573D01*
X138780Y209975D01*
X138939Y209372D01*
X139083Y208765D01*
X139212Y208155D01*
X139326Y207542D01*
X139425Y206927D01*
X139509Y206309D01*
X139578Y205690D01*
X139631Y205069D01*
X139669Y204446D01*
X139692Y203823D01*
X139700Y203200D01*
X139692Y202577D01*
X139669Y201954D01*
X139631Y201331D01*
X139578Y200710D01*
X139509Y200091D01*
X139425Y199473D01*
X139326Y198858D01*
X139212Y198245D01*
X139083Y197635D01*
X138939Y197028D01*
X138780Y196425D01*
X138606Y195827D01*
X138418Y195232D01*
X138215Y194643D01*
X137998Y194059D01*
X137767Y193480D01*
X137521Y192907D01*
X137261Y192340D01*
X136988Y191780D01*
X136701Y191227D01*
X136400Y190680D01*
X136086Y190142D01*
X135759Y189611D01*
X135419Y189089D01*
X135067Y188574D01*
X134701Y188069D01*
X134324Y187573D01*
X133934Y187086D01*
X133533Y186609D01*
X133120Y186142D01*
X132696Y185686D01*
X132261Y185239D01*
X131814Y184804D01*
X131358Y184380D01*
X130891Y183967D01*
X130414Y183566D01*
X129927Y183176D01*
X129431Y182799D01*
X128926Y182433D01*
X128411Y182081D01*
X127889Y181741D01*
X127358Y181414D01*
X126820Y181100D01*
X126273Y180799D01*
X125720Y180512D01*
X125160Y180239D01*
X124593Y179979D01*
X124020Y179733D01*
X123441Y179502D01*
X122857Y179285D01*
X122268Y179082D01*
X121673Y178894D01*
X121075Y178720D01*
X120472Y178561D01*
X119865Y178417D01*
X119255Y178288D01*
X118642Y178174D01*
X118027Y178075D01*
X117409Y177991D01*
X116790Y177922D01*
X116169Y177869D01*
X115546Y177831D01*
X114923Y177808D01*
X114300Y177800D01*
X113677Y177808D01*
X113054Y177831D01*
X112431Y177869D01*
X111810Y177922D01*
X111191Y177991D01*
X110573Y178075D01*
X109958Y178174D01*
X109345Y178288D01*
X108735Y178417D01*
X108128Y178561D01*
X107525Y178720D01*
X106927Y178894D01*
X106332Y179082D01*
X105743Y179285D01*
X105159Y179502D01*
X104580Y179733D01*
X104007Y179979D01*
X103440Y180239D01*
X102880Y180512D01*
X102327Y180799D01*
X101780Y181100D01*
X101242Y181414D01*
X100711Y181741D01*
X100189Y182081D01*
X99674Y182433D01*
X99169Y182799D01*
X98673Y183176D01*
X98186Y183566D01*
X97709Y183967D01*
X97242Y184380D01*
X96786Y184804D01*
X96339Y185239D01*
X95904Y185686D01*
X95480Y186142D01*
X95067Y186609D01*
X94666Y187086D01*
X94276Y187573D01*
X93899Y188069D01*
X93533Y188574D01*
X93181Y189089D01*
X92841Y189611D01*
X92514Y190142D01*
X92200Y190680D01*
X91899Y191227D01*
X91612Y191780D01*
X91339Y192340D01*
X91079Y192907D01*
X90833Y193480D01*
X90602Y194059D01*
X90385Y194643D01*
X90182Y195232D01*
X89994Y195827D01*
X89820Y196425D01*
X89661Y197028D01*
X89517Y197635D01*
X89388Y198245D01*
X89274Y198858D01*
X89175Y199473D01*
X89091Y200091D01*
X89022Y200710D01*
X88969Y201331D01*
X88931Y201954D01*
X88908Y202577D01*
X88900Y203200D01*
D11*
X139700Y184150D02*
X139700Y222250D01*
D12*
X140538Y223037D02*
X138709Y221665D01*
X138709Y221666D02*
X138250Y222257D01*
X137777Y222837D01*
X137290Y223405D01*
X136789Y223961D01*
X136275Y224504D01*
X135748Y225035D01*
X135208Y225553D01*
X134655Y226058D01*
X134090Y226548D01*
X133513Y227025D01*
X132925Y227488D01*
X132326Y227936D01*
X131715Y228369D01*
X131095Y228788D01*
X130464Y229190D01*
X129824Y229578D01*
X129175Y229950D01*
X128516Y230305D01*
X127849Y230645D01*
X127174Y230968D01*
X126491Y231274D01*
X125801Y231564D01*
X125105Y231837D01*
X124401Y232092D01*
X123692Y232330D01*
X122977Y232551D01*
X122257Y232755D01*
X121532Y232940D01*
X120803Y233108D01*
X120069Y233258D01*
X119333Y233390D01*
X118593Y233504D01*
X117851Y233600D01*
X117107Y233678D01*
X116361Y233738D01*
X115614Y233779D01*
X114866Y233802D01*
X114117Y233806D01*
X113369Y233793D01*
X112621Y233761D01*
X111875Y233711D01*
X111130Y233642D01*
X110386Y233556D01*
X109645Y233451D01*
X108907Y233328D01*
X108172Y233187D01*
X107441Y233029D01*
X106714Y232852D01*
X105991Y232658D01*
X105273Y232446D01*
X104561Y232216D01*
X103855Y231969D01*
X103154Y231705D01*
X102461Y231424D01*
X101774Y231127D01*
X101095Y230812D01*
X100424Y230481D01*
X99761Y230134D01*
X99107Y229770D01*
X98462Y229391D01*
X97827Y228996D01*
X97201Y228585D01*
X96585Y228160D01*
X95980Y227719D01*
X95386Y227264D01*
X94804Y226794D01*
X94233Y226310D01*
X93674Y225813D01*
X93127Y225302D01*
X92593Y224778D01*
X92072Y224241D01*
X91564Y223691D01*
X91070Y223129D01*
X90590Y222555D01*
X90124Y221970D01*
X89672Y221373D01*
X89235Y220765D01*
X88813Y220147D01*
X88406Y219519D01*
X88015Y218881D01*
X87640Y218234D01*
X87280Y217578D01*
X86937Y216913D01*
X86610Y216240D01*
X86299Y215559D01*
X86005Y214871D01*
X85729Y214175D01*
X85469Y213474D01*
X85226Y212766D01*
X85001Y212052D01*
X84793Y211333D01*
X84603Y210609D01*
X84431Y209881D01*
X84277Y209149D01*
X84140Y208413D01*
X84022Y207674D01*
X83921Y206932D01*
X83839Y206189D01*
X83775Y205443D01*
X83730Y204696D01*
X83702Y203948D01*
X83693Y203200D01*
X83702Y202452D01*
X83730Y201704D01*
X83775Y200957D01*
X83839Y200211D01*
X83921Y199468D01*
X84022Y198726D01*
X84140Y197987D01*
X84277Y197251D01*
X84431Y196519D01*
X84603Y195791D01*
X84793Y195067D01*
X85001Y194348D01*
X85226Y193634D01*
X85469Y192926D01*
X85729Y192225D01*
X86005Y191529D01*
X86299Y190841D01*
X86610Y190160D01*
X86937Y189487D01*
X87280Y188822D01*
X87640Y188166D01*
X88015Y187519D01*
X88406Y186881D01*
X88813Y186253D01*
X89235Y185635D01*
X89672Y185027D01*
X90124Y184430D01*
X90590Y183845D01*
X91070Y183271D01*
X91564Y182709D01*
X92072Y182159D01*
X92593Y181622D01*
X93127Y181098D01*
X93674Y180587D01*
X94233Y180090D01*
X94804Y179606D01*
X95386Y179136D01*
X95980Y178681D01*
X96585Y178240D01*
X97201Y177815D01*
X97827Y177404D01*
X98462Y177009D01*
X99107Y176630D01*
X99761Y176266D01*
X100424Y175919D01*
X101095Y175588D01*
X101774Y175273D01*
X102461Y174976D01*
X103154Y174695D01*
X103855Y174431D01*
X104561Y174184D01*
X105273Y173954D01*
X105991Y173742D01*
X106714Y173548D01*
X107441Y173371D01*
X108172Y173213D01*
X108907Y173072D01*
X109645Y172949D01*
X110386Y172844D01*
X111130Y172758D01*
X111875Y172689D01*
X112621Y172639D01*
X113369Y172607D01*
X114117Y172594D01*
X114866Y172598D01*
X115614Y172621D01*
X116361Y172662D01*
X117107Y172722D01*
X117851Y172800D01*
X118593Y172896D01*
X119333Y173010D01*
X120069Y173142D01*
X120803Y173292D01*
X121532Y173460D01*
X122257Y173645D01*
X122977Y173849D01*
X123692Y174070D01*
X124401Y174308D01*
X125105Y174563D01*
X125801Y174836D01*
X126491Y175126D01*
X127174Y175432D01*
X127849Y175755D01*
X128516Y176095D01*
X129175Y176450D01*
X129824Y176822D01*
X130464Y177210D01*
X131095Y177612D01*
X131715Y178031D01*
X132326Y178464D01*
X132925Y178912D01*
X133513Y179375D01*
X134090Y179852D01*
X134655Y180342D01*
X135208Y180847D01*
X135748Y181365D01*
X136275Y181896D01*
X136789Y182439D01*
X137290Y182995D01*
X137777Y183563D01*
X138250Y184143D01*
X138709Y184734D01*
X140538Y183363D01*
X140045Y182727D01*
X139537Y182104D01*
X139013Y181493D01*
X138475Y180895D01*
X137923Y180311D01*
X137356Y179740D01*
X136776Y179183D01*
X136182Y178641D01*
X135575Y178113D01*
X134955Y177601D01*
X134323Y177103D01*
X133679Y176621D01*
X133023Y176156D01*
X132356Y175706D01*
X131678Y175273D01*
X130990Y174856D01*
X130292Y174456D01*
X129585Y174074D01*
X128868Y173709D01*
X128143Y173362D01*
X127409Y173032D01*
X126667Y172721D01*
X125918Y172427D01*
X125163Y172152D01*
X124400Y171896D01*
X123632Y171658D01*
X122858Y171440D01*
X122079Y171240D01*
X121295Y171059D01*
X120507Y170898D01*
X119715Y170756D01*
X118920Y170633D01*
X118123Y170530D01*
X117323Y170446D01*
X116521Y170382D01*
X115718Y170338D01*
X114914Y170313D01*
X114110Y170308D01*
X113305Y170322D01*
X112502Y170356D01*
X111699Y170410D01*
X110898Y170483D01*
X110099Y170576D01*
X109303Y170689D01*
X108510Y170821D01*
X107720Y170972D01*
X106934Y171142D01*
X106152Y171332D01*
X105375Y171541D01*
X104604Y171769D01*
X103838Y172015D01*
X103079Y172280D01*
X102326Y172564D01*
X101581Y172866D01*
X100843Y173186D01*
X100113Y173524D01*
X99391Y173880D01*
X98679Y174253D01*
X97976Y174644D01*
X97283Y175051D01*
X96599Y175476D01*
X95927Y175917D01*
X95265Y176374D01*
X94615Y176848D01*
X93977Y177337D01*
X93350Y177841D01*
X92736Y178361D01*
X92136Y178896D01*
X91548Y179445D01*
X90974Y180009D01*
X90414Y180586D01*
X89868Y181177D01*
X89337Y181781D01*
X88821Y182397D01*
X88320Y183027D01*
X87834Y183668D01*
X87364Y184321D01*
X86911Y184985D01*
X86474Y185660D01*
X86053Y186346D01*
X85649Y187041D01*
X85263Y187747D01*
X84894Y188461D01*
X84542Y189185D01*
X84208Y189917D01*
X83893Y190656D01*
X83595Y191404D01*
X83316Y192158D01*
X83055Y192919D01*
X82813Y193686D01*
X82590Y194459D01*
X82386Y195237D01*
X82200Y196019D01*
X82034Y196806D01*
X81888Y197597D01*
X81760Y198391D01*
X81653Y199188D01*
X81564Y199988D01*
X81495Y200789D01*
X81446Y201592D01*
X81417Y202396D01*
X81407Y203200D01*
X81417Y204004D01*
X81446Y204808D01*
X81495Y205611D01*
X81564Y206412D01*
X81653Y207212D01*
X81760Y208009D01*
X81888Y208803D01*
X82034Y209594D01*
X82200Y210381D01*
X82386Y211163D01*
X82590Y211941D01*
X82813Y212714D01*
X83055Y213481D01*
X83316Y214242D01*
X83595Y214996D01*
X83893Y215744D01*
X84208Y216483D01*
X84542Y217215D01*
X84894Y217939D01*
X85263Y218653D01*
X85649Y219359D01*
X86053Y220054D01*
X86474Y220740D01*
X86911Y221415D01*
X87364Y222079D01*
X87834Y222732D01*
X88320Y223373D01*
X88821Y224003D01*
X89337Y224619D01*
X89868Y225223D01*
X90414Y225814D01*
X90974Y226391D01*
X91548Y226955D01*
X92136Y227504D01*
X92736Y228039D01*
X93350Y228559D01*
X93977Y229063D01*
X94615Y229552D01*
X95265Y230026D01*
X95927Y230483D01*
X96599Y230924D01*
X97283Y231349D01*
X97976Y231756D01*
X98679Y232147D01*
X99391Y232520D01*
X100113Y232876D01*
X100843Y233214D01*
X101581Y233534D01*
X102326Y233836D01*
X103079Y234120D01*
X103838Y234385D01*
X104604Y234631D01*
X105375Y234859D01*
X106152Y235068D01*
X106934Y235258D01*
X107720Y235428D01*
X108510Y235579D01*
X109303Y235711D01*
X110099Y235824D01*
X110898Y235917D01*
X111699Y235990D01*
X112502Y236044D01*
X113305Y236078D01*
X114110Y236092D01*
X114914Y236087D01*
X115718Y236062D01*
X116521Y236018D01*
X117323Y235954D01*
X118123Y235870D01*
X118920Y235767D01*
X119715Y235644D01*
X120507Y235502D01*
X121295Y235341D01*
X122079Y235160D01*
X122858Y234960D01*
X123632Y234742D01*
X124400Y234504D01*
X125163Y234248D01*
X125918Y233973D01*
X126667Y233679D01*
X127409Y233368D01*
X128143Y233038D01*
X128868Y232691D01*
X129585Y232326D01*
X130292Y231944D01*
X130990Y231544D01*
X131678Y231127D01*
X132356Y230694D01*
X133023Y230244D01*
X133679Y229779D01*
X134323Y229297D01*
X134955Y228799D01*
X135575Y228287D01*
X136182Y227759D01*
X136776Y227217D01*
X137356Y226660D01*
X137923Y226089D01*
X138475Y225505D01*
X139013Y224907D01*
X139537Y224296D01*
X140045Y223673D01*
X140538Y223037D01*
X140346Y222893D01*
X139857Y223524D01*
X139352Y224143D01*
X138833Y224749D01*
X138298Y225343D01*
X137750Y225923D01*
X137187Y226489D01*
X136611Y227042D01*
X136021Y227580D01*
X135419Y228104D01*
X134803Y228613D01*
X134176Y229107D01*
X133537Y229585D01*
X132886Y230048D01*
X132224Y230494D01*
X131551Y230924D01*
X130868Y231338D01*
X130175Y231734D01*
X129473Y232114D01*
X128761Y232476D01*
X128041Y232821D01*
X127313Y233148D01*
X126576Y233457D01*
X125833Y233748D01*
X125083Y234021D01*
X124326Y234276D01*
X123563Y234512D01*
X122795Y234729D01*
X122021Y234927D01*
X121243Y235106D01*
X120461Y235267D01*
X119675Y235408D01*
X118886Y235529D01*
X118094Y235632D01*
X117300Y235715D01*
X116504Y235779D01*
X115707Y235823D01*
X114909Y235847D01*
X114110Y235852D01*
X113312Y235838D01*
X112514Y235804D01*
X111718Y235751D01*
X110923Y235678D01*
X110130Y235586D01*
X109339Y235474D01*
X108551Y235343D01*
X107767Y235193D01*
X106987Y235024D01*
X106211Y234835D01*
X105440Y234628D01*
X104674Y234402D01*
X103914Y234157D01*
X103160Y233894D01*
X102413Y233612D01*
X101673Y233313D01*
X100940Y232995D01*
X100216Y232659D01*
X99500Y232306D01*
X98793Y231936D01*
X98095Y231548D01*
X97406Y231143D01*
X96728Y230722D01*
X96061Y230284D01*
X95404Y229830D01*
X94758Y229360D01*
X94125Y228874D01*
X93503Y228373D01*
X92894Y227857D01*
X92297Y227327D01*
X91714Y226781D01*
X91144Y226222D01*
X90588Y225649D01*
X90046Y225062D01*
X89519Y224463D01*
X89006Y223851D01*
X88509Y223226D01*
X88027Y222589D01*
X87561Y221941D01*
X87111Y221282D01*
X86677Y220612D01*
X86259Y219931D01*
X85858Y219240D01*
X85475Y218540D01*
X85108Y217831D01*
X84759Y217113D01*
X84428Y216386D01*
X84114Y215652D01*
X83819Y214910D01*
X83542Y214161D01*
X83283Y213406D01*
X83043Y212645D01*
X82821Y211878D01*
X82618Y211105D01*
X82435Y210328D01*
X82270Y209547D01*
X82124Y208762D01*
X81998Y207974D01*
X81891Y207182D01*
X81803Y206389D01*
X81735Y205593D01*
X81686Y204796D01*
X81657Y203998D01*
X81647Y203200D01*
X81657Y202402D01*
X81686Y201604D01*
X81735Y200807D01*
X81803Y200011D01*
X81891Y199218D01*
X81998Y198426D01*
X82124Y197638D01*
X82270Y196853D01*
X82435Y196072D01*
X82618Y195295D01*
X82821Y194522D01*
X83043Y193755D01*
X83283Y192994D01*
X83542Y192239D01*
X83819Y191490D01*
X84114Y190748D01*
X84428Y190014D01*
X84759Y189287D01*
X85108Y188569D01*
X85475Y187860D01*
X85858Y187160D01*
X86259Y186469D01*
X86677Y185788D01*
X87111Y185118D01*
X87561Y184459D01*
X88027Y183811D01*
X88509Y183174D01*
X89006Y182549D01*
X89519Y181937D01*
X90046Y181338D01*
X90588Y180751D01*
X91144Y180178D01*
X91714Y179619D01*
X92297Y179073D01*
X92894Y178543D01*
X93503Y178027D01*
X94125Y177526D01*
X94758Y177040D01*
X95404Y176570D01*
X96061Y176116D01*
X96728Y175678D01*
X97406Y175257D01*
X98095Y174852D01*
X98793Y174464D01*
X99500Y174094D01*
X100216Y173741D01*
X100940Y173405D01*
X101673Y173087D01*
X102413Y172788D01*
X103160Y172506D01*
X103914Y172243D01*
X104674Y171998D01*
X105440Y171772D01*
X106211Y171565D01*
X106987Y171376D01*
X107767Y171207D01*
X108551Y171057D01*
X109339Y170926D01*
X110130Y170814D01*
X110923Y170722D01*
X111718Y170649D01*
X112514Y170596D01*
X113312Y170562D01*
X114110Y170548D01*
X114909Y170553D01*
X115707Y170577D01*
X116504Y170621D01*
X117300Y170685D01*
X118094Y170768D01*
X118886Y170871D01*
X119675Y170992D01*
X120461Y171133D01*
X121243Y171294D01*
X122021Y171473D01*
X122795Y171671D01*
X123563Y171888D01*
X124326Y172124D01*
X125083Y172379D01*
X125833Y172652D01*
X126576Y172943D01*
X127313Y173252D01*
X128041Y173579D01*
X128761Y173924D01*
X129473Y174286D01*
X130175Y174666D01*
X130868Y175062D01*
X131551Y175476D01*
X132224Y175906D01*
X132886Y176352D01*
X133537Y176815D01*
X134176Y177293D01*
X134803Y177787D01*
X135419Y178296D01*
X136021Y178820D01*
X136611Y179358D01*
X137187Y179911D01*
X137750Y180477D01*
X138298Y181057D01*
X138833Y181651D01*
X139352Y182257D01*
X139857Y182876D01*
X140346Y183507D01*
X140154Y183651D01*
X139668Y183024D01*
X139167Y182410D01*
X138652Y181808D01*
X138121Y181219D01*
X137577Y180644D01*
X137018Y180081D01*
X136446Y179533D01*
X135861Y178998D01*
X135263Y178478D01*
X134652Y177973D01*
X134029Y177483D01*
X133395Y177008D01*
X132748Y176549D01*
X132091Y176106D01*
X131424Y175679D01*
X130745Y175269D01*
X130058Y174875D01*
X129360Y174498D01*
X128654Y174139D01*
X127939Y173796D01*
X127216Y173472D01*
X126486Y173165D01*
X125748Y172876D01*
X125003Y172605D01*
X124251Y172352D01*
X123494Y172118D01*
X122732Y171903D01*
X121964Y171706D01*
X121191Y171528D01*
X120415Y171369D01*
X119635Y171229D01*
X118852Y171108D01*
X118066Y171006D01*
X117277Y170924D01*
X116487Y170861D01*
X115696Y170817D01*
X114904Y170793D01*
X114111Y170788D01*
X113319Y170802D01*
X112527Y170836D01*
X111736Y170889D01*
X110947Y170961D01*
X110160Y171053D01*
X109375Y171163D01*
X108593Y171293D01*
X107815Y171442D01*
X107040Y171611D01*
X106270Y171797D01*
X105504Y172003D01*
X104744Y172228D01*
X103990Y172470D01*
X103242Y172732D01*
X102500Y173011D01*
X101765Y173309D01*
X101038Y173624D01*
X100319Y173957D01*
X99608Y174308D01*
X98906Y174676D01*
X98213Y175061D01*
X97530Y175462D01*
X96857Y175881D01*
X96194Y176315D01*
X95542Y176766D01*
X94902Y177233D01*
X94273Y177715D01*
X93655Y178212D01*
X93051Y178724D01*
X92459Y179251D01*
X91880Y179792D01*
X91314Y180347D01*
X90762Y180916D01*
X90224Y181498D01*
X89701Y182094D01*
X89192Y182701D01*
X88698Y183321D01*
X88220Y183953D01*
X87757Y184597D01*
X87310Y185251D01*
X86880Y185916D01*
X86465Y186592D01*
X86067Y187278D01*
X85687Y187973D01*
X85323Y188677D01*
X84976Y189390D01*
X84647Y190111D01*
X84336Y190840D01*
X84043Y191576D01*
X83768Y192319D01*
X83511Y193069D01*
X83272Y193825D01*
X83052Y194586D01*
X82851Y195353D01*
X82669Y196124D01*
X82505Y196900D01*
X82361Y197679D01*
X82235Y198462D01*
X82129Y199247D01*
X82042Y200035D01*
X81974Y200824D01*
X81926Y201615D01*
X81897Y202407D01*
X81887Y203200D01*
X81897Y203993D01*
X81926Y204785D01*
X81974Y205576D01*
X82042Y206365D01*
X82129Y207153D01*
X82235Y207938D01*
X82361Y208721D01*
X82505Y209500D01*
X82669Y210276D01*
X82851Y211047D01*
X83052Y211814D01*
X83272Y212575D01*
X83511Y213331D01*
X83768Y214081D01*
X84043Y214824D01*
X84336Y215560D01*
X84647Y216289D01*
X84976Y217010D01*
X85323Y217723D01*
X85687Y218427D01*
X86067Y219122D01*
X86465Y219808D01*
X86880Y220484D01*
X87310Y221149D01*
X87757Y221803D01*
X88220Y222447D01*
X88698Y223079D01*
X89192Y223699D01*
X89701Y224306D01*
X90224Y224902D01*
X90762Y225484D01*
X91314Y226053D01*
X91880Y226608D01*
X92459Y227149D01*
X93051Y227676D01*
X93655Y228188D01*
X94273Y228685D01*
X94902Y229167D01*
X95542Y229634D01*
X96194Y230085D01*
X96857Y230519D01*
X97530Y230938D01*
X98213Y231339D01*
X98906Y231724D01*
X99608Y232092D01*
X100319Y232443D01*
X101038Y232776D01*
X101765Y233091D01*
X102500Y233389D01*
X103242Y233668D01*
X103990Y233930D01*
X104744Y234172D01*
X105504Y234397D01*
X106270Y234603D01*
X107040Y234789D01*
X107815Y234958D01*
X108593Y235107D01*
X109375Y235237D01*
X110160Y235347D01*
X110947Y235439D01*
X111736Y235511D01*
X112527Y235564D01*
X113319Y235598D01*
X114111Y235612D01*
X114904Y235607D01*
X115696Y235583D01*
X116487Y235539D01*
X117277Y235476D01*
X118066Y235394D01*
X118852Y235292D01*
X119635Y235171D01*
X120415Y235031D01*
X121191Y234872D01*
X121964Y234694D01*
X122732Y234497D01*
X123494Y234282D01*
X124251Y234048D01*
X125003Y233795D01*
X125748Y233524D01*
X126486Y233235D01*
X127216Y232928D01*
X127939Y232604D01*
X128654Y232261D01*
X129360Y231902D01*
X130058Y231525D01*
X130745Y231131D01*
X131424Y230721D01*
X132091Y230294D01*
X132748Y229851D01*
X133395Y229392D01*
X134029Y228917D01*
X134652Y228427D01*
X135263Y227922D01*
X135861Y227402D01*
X136446Y226867D01*
X137018Y226319D01*
X137577Y225756D01*
X138121Y225181D01*
X138652Y224592D01*
X139167Y223990D01*
X139668Y223376D01*
X140154Y222749D01*
X139962Y222605D01*
X139480Y223227D01*
X138983Y223837D01*
X138471Y224434D01*
X137944Y225018D01*
X137404Y225590D01*
X136849Y226148D01*
X136282Y226693D01*
X135701Y227223D01*
X135107Y227739D01*
X134501Y228241D01*
X133882Y228727D01*
X133252Y229198D01*
X132611Y229654D01*
X131959Y230094D01*
X131296Y230517D01*
X130623Y230925D01*
X129940Y231316D01*
X129248Y231690D01*
X128547Y232046D01*
X127838Y232386D01*
X127120Y232708D01*
X126395Y233013D01*
X125662Y233300D01*
X124923Y233569D01*
X124177Y233819D01*
X123425Y234052D01*
X122668Y234266D01*
X121906Y234461D01*
X121140Y234638D01*
X120369Y234795D01*
X119595Y234934D01*
X118817Y235054D01*
X118037Y235155D01*
X117255Y235237D01*
X116470Y235300D01*
X115685Y235343D01*
X114899Y235367D01*
X114112Y235372D01*
X113325Y235358D01*
X112539Y235325D01*
X111755Y235272D01*
X110971Y235200D01*
X110190Y235109D01*
X109411Y234999D01*
X108635Y234870D01*
X107862Y234722D01*
X107093Y234555D01*
X106329Y234370D01*
X105569Y234166D01*
X104815Y233943D01*
X104066Y233702D01*
X103323Y233443D01*
X102587Y233165D01*
X101858Y232870D01*
X101136Y232557D01*
X100422Y232226D01*
X99717Y231878D01*
X99020Y231513D01*
X98332Y231131D01*
X97654Y230732D01*
X96986Y230317D01*
X96328Y229885D01*
X95681Y229438D01*
X95045Y228975D01*
X94421Y228496D01*
X93808Y228003D01*
X93208Y227494D01*
X92620Y226971D01*
X92045Y226434D01*
X91484Y225883D01*
X90936Y225319D01*
X90402Y224741D01*
X89883Y224150D01*
X89378Y223547D01*
X88888Y222931D01*
X88413Y222304D01*
X87954Y221665D01*
X87510Y221016D01*
X87082Y220355D01*
X86671Y219685D01*
X86276Y219004D01*
X85898Y218314D01*
X85537Y217615D01*
X85193Y216908D01*
X84867Y216192D01*
X84558Y215469D01*
X84267Y214738D01*
X83994Y214000D01*
X83739Y213256D01*
X83502Y212506D01*
X83284Y211750D01*
X83084Y210989D01*
X82903Y210223D01*
X82741Y209454D01*
X82597Y208680D01*
X82473Y207903D01*
X82367Y207124D01*
X82281Y206342D01*
X82214Y205558D01*
X82165Y204773D01*
X82137Y203987D01*
X82127Y203200D01*
X82137Y202413D01*
X82165Y201627D01*
X82214Y200842D01*
X82281Y200058D01*
X82367Y199276D01*
X82473Y198497D01*
X82597Y197720D01*
X82741Y196946D01*
X82903Y196177D01*
X83084Y195411D01*
X83284Y194650D01*
X83502Y193894D01*
X83739Y193144D01*
X83994Y192400D01*
X84267Y191662D01*
X84558Y190931D01*
X84867Y190208D01*
X85193Y189492D01*
X85537Y188785D01*
X85898Y188086D01*
X86276Y187396D01*
X86671Y186715D01*
X87082Y186045D01*
X87510Y185384D01*
X87954Y184735D01*
X88413Y184096D01*
X88888Y183469D01*
X89378Y182853D01*
X89883Y182250D01*
X90402Y181659D01*
X90936Y181081D01*
X91484Y180517D01*
X92045Y179966D01*
X92620Y179429D01*
X93208Y178906D01*
X93808Y178397D01*
X94421Y177904D01*
X95045Y177425D01*
X95681Y176962D01*
X96328Y176515D01*
X96986Y176083D01*
X97654Y175668D01*
X98332Y175269D01*
X99020Y174887D01*
X99717Y174522D01*
X100422Y174174D01*
X101136Y173843D01*
X101858Y173530D01*
X102587Y173235D01*
X103323Y172957D01*
X104066Y172698D01*
X104815Y172457D01*
X105569Y172234D01*
X106329Y172030D01*
X107093Y171845D01*
X107862Y171678D01*
X108635Y171530D01*
X109411Y171401D01*
X110190Y171291D01*
X110971Y171200D01*
X111755Y171128D01*
X112539Y171075D01*
X113325Y171042D01*
X114112Y171028D01*
X114899Y171033D01*
X115685Y171057D01*
X116470Y171100D01*
X117255Y171163D01*
X118037Y171245D01*
X118817Y171346D01*
X119595Y171466D01*
X120369Y171605D01*
X121140Y171762D01*
X121906Y171939D01*
X122668Y172134D01*
X123425Y172348D01*
X124177Y172581D01*
X124923Y172831D01*
X125662Y173100D01*
X126395Y173387D01*
X127120Y173692D01*
X127838Y174014D01*
X128547Y174354D01*
X129248Y174710D01*
X129940Y175084D01*
X130623Y175475D01*
X131296Y175883D01*
X131959Y176306D01*
X132611Y176746D01*
X133252Y177202D01*
X133882Y177673D01*
X134501Y178159D01*
X135107Y178661D01*
X135701Y179177D01*
X136282Y179707D01*
X136849Y180252D01*
X137404Y180810D01*
X137944Y181382D01*
X138471Y181966D01*
X138983Y182563D01*
X139480Y183173D01*
X139962Y183795D01*
X139770Y183939D01*
X139291Y183322D01*
X138798Y182717D01*
X138290Y182124D01*
X137767Y181544D01*
X137231Y180976D01*
X136681Y180422D01*
X136117Y179882D01*
X135540Y179355D01*
X134951Y178843D01*
X134349Y178346D01*
X133736Y177863D01*
X133110Y177395D01*
X132474Y176943D01*
X131826Y176507D01*
X131169Y176086D01*
X130501Y175682D01*
X129823Y175294D01*
X129136Y174923D01*
X128440Y174568D01*
X127736Y174231D01*
X127024Y173911D01*
X126304Y173609D01*
X125577Y173324D01*
X124843Y173058D01*
X124103Y172809D01*
X123357Y172578D01*
X122605Y172366D01*
X121849Y172172D01*
X121088Y171997D01*
X120323Y171840D01*
X119555Y171702D01*
X118783Y171583D01*
X118009Y171483D01*
X117232Y171402D01*
X116454Y171340D01*
X115674Y171297D01*
X114894Y171273D01*
X114113Y171268D01*
X113332Y171282D01*
X112552Y171315D01*
X111773Y171367D01*
X110995Y171438D01*
X110220Y171529D01*
X109447Y171638D01*
X108676Y171766D01*
X107910Y171913D01*
X107147Y172079D01*
X106388Y172263D01*
X105634Y172465D01*
X104885Y172687D01*
X104142Y172926D01*
X103405Y173183D01*
X102674Y173459D01*
X101950Y173752D01*
X101234Y174063D01*
X100525Y174391D01*
X99825Y174736D01*
X99134Y175099D01*
X98451Y175478D01*
X97778Y175874D01*
X97115Y176286D01*
X96462Y176714D01*
X95820Y177158D01*
X95188Y177618D01*
X94569Y178092D01*
X93961Y178582D01*
X93365Y179087D01*
X92782Y179606D01*
X92211Y180139D01*
X91654Y180686D01*
X91110Y181247D01*
X90580Y181820D01*
X90065Y182407D01*
X89564Y183005D01*
X89077Y183616D01*
X88606Y184239D01*
X88150Y184873D01*
X87710Y185517D01*
X87285Y186173D01*
X86877Y186838D01*
X86485Y187514D01*
X86110Y188199D01*
X85752Y188892D01*
X85410Y189594D01*
X85086Y190305D01*
X84780Y191023D01*
X84491Y191748D01*
X84220Y192481D01*
X83967Y193219D01*
X83732Y193964D01*
X83515Y194714D01*
X83317Y195469D01*
X83137Y196229D01*
X82976Y196993D01*
X82834Y197761D01*
X82710Y198532D01*
X82605Y199306D01*
X82520Y200082D01*
X82453Y200860D01*
X82405Y201639D01*
X82377Y202419D01*
X82367Y203200D01*
X82377Y203981D01*
X82405Y204761D01*
X82453Y205540D01*
X82520Y206318D01*
X82605Y207094D01*
X82710Y207868D01*
X82834Y208639D01*
X82976Y209407D01*
X83137Y210171D01*
X83317Y210931D01*
X83515Y211686D01*
X83732Y212436D01*
X83967Y213181D01*
X84220Y213919D01*
X84491Y214652D01*
X84780Y215377D01*
X85086Y216095D01*
X85410Y216806D01*
X85752Y217508D01*
X86110Y218201D01*
X86485Y218886D01*
X86877Y219562D01*
X87285Y220227D01*
X87710Y220883D01*
X88150Y221527D01*
X88606Y222161D01*
X89077Y222784D01*
X89564Y223395D01*
X90065Y223993D01*
X90580Y224580D01*
X91110Y225153D01*
X91654Y225714D01*
X92211Y226261D01*
X92782Y226794D01*
X93365Y227313D01*
X93961Y227818D01*
X94569Y228308D01*
X95188Y228782D01*
X95820Y229242D01*
X96462Y229686D01*
X97115Y230114D01*
X97778Y230526D01*
X98451Y230922D01*
X99134Y231301D01*
X99825Y231664D01*
X100525Y232009D01*
X101234Y232337D01*
X101950Y232648D01*
X102674Y232941D01*
X103405Y233217D01*
X104142Y233474D01*
X104885Y233713D01*
X105634Y233935D01*
X106388Y234137D01*
X107147Y234321D01*
X107910Y234487D01*
X108676Y234634D01*
X109447Y234762D01*
X110220Y234871D01*
X110995Y234962D01*
X111773Y235033D01*
X112552Y235085D01*
X113332Y235118D01*
X114113Y235132D01*
X114894Y235127D01*
X115674Y235103D01*
X116454Y235060D01*
X117232Y234998D01*
X118009Y234917D01*
X118783Y234817D01*
X119555Y234698D01*
X120323Y234560D01*
X121088Y234403D01*
X121849Y234228D01*
X122605Y234034D01*
X123357Y233822D01*
X124103Y233591D01*
X124843Y233342D01*
X125577Y233076D01*
X126304Y232791D01*
X127024Y232489D01*
X127736Y232169D01*
X128440Y231832D01*
X129136Y231477D01*
X129823Y231106D01*
X130501Y230718D01*
X131169Y230314D01*
X131826Y229893D01*
X132474Y229457D01*
X133110Y229005D01*
X133736Y228537D01*
X134349Y228054D01*
X134951Y227557D01*
X135540Y227045D01*
X136117Y226518D01*
X136681Y225978D01*
X137231Y225424D01*
X137767Y224856D01*
X138290Y224276D01*
X138798Y223683D01*
X139291Y223078D01*
X139770Y222461D01*
X139578Y222317D01*
X139103Y222930D01*
X138613Y223530D01*
X138109Y224118D01*
X137590Y224694D01*
X137058Y225257D01*
X136512Y225807D01*
X135952Y226343D01*
X135380Y226866D01*
X134795Y227374D01*
X134198Y227868D01*
X133589Y228347D01*
X132968Y228811D01*
X132337Y229260D01*
X131694Y229693D01*
X131041Y230111D01*
X130378Y230512D01*
X129706Y230897D01*
X129024Y231265D01*
X128333Y231617D01*
X127634Y231951D01*
X126927Y232269D01*
X126213Y232569D01*
X125491Y232851D01*
X124763Y233116D01*
X124028Y233363D01*
X123288Y233592D01*
X122542Y233802D01*
X121792Y233995D01*
X121036Y234169D01*
X120277Y234324D01*
X119514Y234461D01*
X118749Y234579D01*
X117980Y234679D01*
X117209Y234759D01*
X116437Y234821D01*
X115663Y234864D01*
X114889Y234888D01*
X114114Y234892D01*
X113339Y234878D01*
X112565Y234845D01*
X111791Y234794D01*
X111020Y234723D01*
X110250Y234633D01*
X109483Y234525D01*
X108718Y234398D01*
X107957Y234252D01*
X107200Y234087D01*
X106447Y233905D01*
X105698Y233703D01*
X104955Y233484D01*
X104218Y233246D01*
X103486Y232991D01*
X102761Y232718D01*
X102043Y232427D01*
X101332Y232118D01*
X100629Y231793D01*
X99934Y231450D01*
X99247Y231090D01*
X98570Y230714D01*
X97902Y230321D01*
X97244Y229912D01*
X96596Y229487D01*
X95958Y229046D01*
X95332Y228590D01*
X94717Y228119D01*
X94113Y227632D01*
X93522Y227132D01*
X92943Y226616D01*
X92377Y226087D01*
X91824Y225544D01*
X91284Y224988D01*
X90758Y224419D01*
X90247Y223837D01*
X89749Y223243D01*
X89267Y222636D01*
X88799Y222019D01*
X88346Y221390D01*
X87909Y220750D01*
X87488Y220099D01*
X87083Y219438D01*
X86694Y218768D01*
X86322Y218089D01*
X85966Y217400D01*
X85627Y216703D01*
X85306Y215998D01*
X85002Y215285D01*
X84715Y214565D01*
X84446Y213839D01*
X84195Y213106D01*
X83962Y212367D01*
X83747Y211622D01*
X83550Y210873D01*
X83371Y210118D01*
X83211Y209360D01*
X83070Y208598D01*
X82947Y207833D01*
X82844Y207065D01*
X82758Y206295D01*
X82692Y205523D01*
X82645Y204749D01*
X82616Y203975D01*
X82607Y203200D01*
X82616Y202425D01*
X82645Y201651D01*
X82692Y200877D01*
X82758Y200105D01*
X82844Y199335D01*
X82947Y198567D01*
X83070Y197802D01*
X83211Y197040D01*
X83371Y196282D01*
X83550Y195527D01*
X83747Y194778D01*
X83962Y194033D01*
X84195Y193294D01*
X84446Y192561D01*
X84715Y191835D01*
X85002Y191115D01*
X85306Y190402D01*
X85627Y189697D01*
X85966Y189000D01*
X86322Y188311D01*
X86694Y187632D01*
X87083Y186962D01*
X87488Y186301D01*
X87909Y185650D01*
X88346Y185010D01*
X88799Y184381D01*
X89267Y183764D01*
X89749Y183157D01*
X90247Y182563D01*
X90758Y181981D01*
X91284Y181412D01*
X91824Y180856D01*
X92377Y180313D01*
X92943Y179784D01*
X93522Y179268D01*
X94113Y178768D01*
X94717Y178281D01*
X95332Y177810D01*
X95958Y177354D01*
X96596Y176913D01*
X97244Y176488D01*
X97902Y176079D01*
X98570Y175686D01*
X99247Y175310D01*
X99934Y174950D01*
X100629Y174607D01*
X101332Y174282D01*
X102043Y173973D01*
X102761Y173682D01*
X103486Y173409D01*
X104218Y173154D01*
X104955Y172916D01*
X105698Y172697D01*
X106447Y172495D01*
X107200Y172313D01*
X107957Y172148D01*
X108718Y172002D01*
X109483Y171875D01*
X110250Y171767D01*
X111020Y171677D01*
X111791Y171606D01*
X112565Y171555D01*
X113339Y171522D01*
X114114Y171508D01*
X114889Y171512D01*
X115663Y171536D01*
X116437Y171579D01*
X117209Y171641D01*
X117980Y171721D01*
X118749Y171821D01*
X119514Y171939D01*
X120277Y172076D01*
X121036Y172231D01*
X121792Y172405D01*
X122542Y172598D01*
X123288Y172808D01*
X124028Y173037D01*
X124763Y173284D01*
X125491Y173549D01*
X126213Y173831D01*
X126927Y174131D01*
X127634Y174449D01*
X128333Y174783D01*
X129024Y175135D01*
X129706Y175503D01*
X130378Y175888D01*
X131041Y176289D01*
X131694Y176707D01*
X132337Y177140D01*
X132968Y177589D01*
X133589Y178053D01*
X134198Y178532D01*
X134795Y179026D01*
X135380Y179534D01*
X135952Y180057D01*
X136512Y180593D01*
X137058Y181143D01*
X137590Y181706D01*
X138109Y182282D01*
X138613Y182870D01*
X139103Y183470D01*
X139578Y184083D01*
X139386Y184227D01*
X138915Y183619D01*
X138429Y183023D01*
X137928Y182439D01*
X137413Y181868D01*
X136885Y181309D01*
X136343Y180763D01*
X135788Y180231D01*
X135220Y179713D01*
X134639Y179208D01*
X134047Y178718D01*
X133442Y178243D01*
X132826Y177782D01*
X132199Y177337D01*
X131562Y176907D01*
X130914Y176493D01*
X130256Y176095D01*
X129588Y175713D01*
X128912Y175347D01*
X128226Y174998D01*
X127533Y174666D01*
X126831Y174351D01*
X126122Y174053D01*
X125406Y173773D01*
X124683Y173510D01*
X123954Y173265D01*
X123219Y173038D01*
X122479Y172829D01*
X121734Y172638D01*
X120985Y172466D01*
X120231Y172311D01*
X119474Y172176D01*
X118714Y172058D01*
X117952Y171960D01*
X117187Y171880D01*
X116420Y171819D01*
X115652Y171776D01*
X114883Y171752D01*
X114114Y171748D01*
X113346Y171761D01*
X112577Y171794D01*
X111810Y171846D01*
X111044Y171916D01*
X110280Y172005D01*
X109519Y172113D01*
X108760Y172239D01*
X108005Y172383D01*
X107253Y172547D01*
X106506Y172728D01*
X105763Y172928D01*
X105026Y173145D01*
X104293Y173381D01*
X103567Y173635D01*
X102848Y173906D01*
X102135Y174195D01*
X101429Y174501D01*
X100732Y174824D01*
X100042Y175164D01*
X99361Y175521D01*
X98689Y175895D01*
X98026Y176285D01*
X97372Y176691D01*
X96729Y177112D01*
X96097Y177550D01*
X95475Y178003D01*
X94865Y178470D01*
X94266Y178953D01*
X93679Y179450D01*
X93105Y179961D01*
X92543Y180486D01*
X91994Y181025D01*
X91458Y181577D01*
X90937Y182142D01*
X90429Y182719D01*
X89935Y183309D01*
X89456Y183911D01*
X88992Y184524D01*
X88543Y185148D01*
X88109Y185784D01*
X87691Y186429D01*
X87289Y187085D01*
X86903Y187750D01*
X86534Y188424D01*
X86181Y189108D01*
X85845Y189799D01*
X85525Y190499D01*
X85223Y191206D01*
X84939Y191921D01*
X84672Y192642D01*
X84423Y193370D01*
X84191Y194103D01*
X83978Y194842D01*
X83783Y195586D01*
X83606Y196334D01*
X83447Y197087D01*
X83307Y197843D01*
X83185Y198602D01*
X83082Y199364D01*
X82997Y200129D01*
X82932Y200895D01*
X82885Y201662D01*
X82856Y202431D01*
X82847Y203200D01*
X82856Y203969D01*
X82885Y204738D01*
X82932Y205505D01*
X82997Y206271D01*
X83082Y207036D01*
X83185Y207798D01*
X83307Y208557D01*
X83447Y209313D01*
X83606Y210066D01*
X83783Y210814D01*
X83978Y211558D01*
X84191Y212297D01*
X84423Y213030D01*
X84672Y213758D01*
X84939Y214479D01*
X85223Y215194D01*
X85525Y215901D01*
X85845Y216601D01*
X86181Y217292D01*
X86534Y217976D01*
X86903Y218650D01*
X87289Y219315D01*
X87691Y219971D01*
X88109Y220616D01*
X88543Y221252D01*
X88992Y221876D01*
X89456Y222489D01*
X89935Y223091D01*
X90429Y223681D01*
X90937Y224258D01*
X91458Y224823D01*
X91994Y225375D01*
X92543Y225914D01*
X93105Y226439D01*
X93679Y226950D01*
X94266Y227447D01*
X94865Y227930D01*
X95475Y228397D01*
X96097Y228850D01*
X96729Y229288D01*
X97372Y229709D01*
X98026Y230115D01*
X98689Y230505D01*
X99361Y230879D01*
X100042Y231236D01*
X100732Y231576D01*
X101429Y231899D01*
X102135Y232205D01*
X102848Y232494D01*
X103567Y232765D01*
X104293Y233019D01*
X105026Y233255D01*
X105763Y233472D01*
X106506Y233672D01*
X107253Y233853D01*
X108005Y234017D01*
X108760Y234161D01*
X109519Y234287D01*
X110280Y234395D01*
X111044Y234484D01*
X111810Y234554D01*
X112577Y234606D01*
X113346Y234639D01*
X114114Y234652D01*
X114883Y234648D01*
X115652Y234624D01*
X116420Y234581D01*
X117187Y234520D01*
X117952Y234440D01*
X118714Y234342D01*
X119474Y234224D01*
X120231Y234089D01*
X120985Y233934D01*
X121734Y233762D01*
X122479Y233571D01*
X123219Y233362D01*
X123954Y233135D01*
X124683Y232890D01*
X125406Y232627D01*
X126122Y232347D01*
X126831Y232049D01*
X127533Y231734D01*
X128226Y231402D01*
X128912Y231053D01*
X129588Y230687D01*
X130256Y230305D01*
X130914Y229907D01*
X131562Y229493D01*
X132199Y229063D01*
X132826Y228618D01*
X133442Y228157D01*
X134047Y227682D01*
X134639Y227192D01*
X135220Y226687D01*
X135788Y226169D01*
X136343Y225637D01*
X136885Y225091D01*
X137413Y224532D01*
X137928Y223961D01*
X138429Y223377D01*
X138915Y222781D01*
X139386Y222173D01*
X139194Y222029D01*
X138726Y222632D01*
X138244Y223224D01*
X137747Y223803D01*
X137236Y224370D01*
X136712Y224925D01*
X136174Y225466D01*
X135623Y225994D01*
X135060Y226509D01*
X134483Y227009D01*
X133895Y227496D01*
X133295Y227967D01*
X132684Y228424D01*
X132062Y228866D01*
X131429Y229293D01*
X130786Y229704D01*
X130133Y230099D01*
X129471Y230478D01*
X128799Y230841D01*
X128119Y231187D01*
X127431Y231517D01*
X126735Y231829D01*
X126031Y232125D01*
X125320Y232403D01*
X124603Y232664D01*
X123880Y232907D01*
X123150Y233132D01*
X122416Y233339D01*
X121677Y233529D01*
X120933Y233700D01*
X120185Y233853D01*
X119434Y233988D01*
X118680Y234104D01*
X117923Y234202D01*
X117164Y234281D01*
X116403Y234342D01*
X115641Y234384D01*
X114878Y234408D01*
X114115Y234412D01*
X113352Y234399D01*
X112590Y234366D01*
X111828Y234315D01*
X111068Y234245D01*
X110310Y234157D01*
X109555Y234050D01*
X108802Y233925D01*
X108052Y233781D01*
X107306Y233619D01*
X106565Y233439D01*
X105828Y233241D01*
X105096Y233025D01*
X104369Y232791D01*
X103649Y232539D01*
X102935Y232270D01*
X102227Y231984D01*
X101527Y231680D01*
X100835Y231359D01*
X100150Y231022D01*
X99474Y230667D01*
X98807Y230297D01*
X98149Y229910D01*
X97501Y229507D01*
X96863Y229088D01*
X96235Y228654D01*
X95618Y228205D01*
X95013Y227741D01*
X94418Y227262D01*
X93836Y226769D01*
X93266Y226261D01*
X92708Y225740D01*
X92164Y225206D01*
X91632Y224658D01*
X91115Y224097D01*
X90611Y223524D01*
X90121Y222939D01*
X89645Y222342D01*
X89185Y221733D01*
X88739Y221114D01*
X88309Y220483D01*
X87894Y219843D01*
X87495Y219192D01*
X87112Y218532D01*
X86745Y217863D01*
X86395Y217185D01*
X86062Y216498D01*
X85745Y215804D01*
X85445Y215102D01*
X85163Y214393D01*
X84898Y213677D01*
X84651Y212955D01*
X84421Y212227D01*
X84209Y211494D01*
X84015Y210756D01*
X83840Y210013D01*
X83682Y209267D01*
X83543Y208516D01*
X83422Y207763D01*
X83320Y207006D01*
X83236Y206248D01*
X83171Y205488D01*
X83124Y204726D01*
X83096Y203963D01*
X83087Y203200D01*
X83096Y202437D01*
X83124Y201674D01*
X83171Y200912D01*
X83236Y200152D01*
X83320Y199394D01*
X83422Y198637D01*
X83543Y197884D01*
X83682Y197133D01*
X83840Y196387D01*
X84015Y195644D01*
X84209Y194906D01*
X84421Y194173D01*
X84651Y193445D01*
X84898Y192723D01*
X85163Y192007D01*
X85445Y191298D01*
X85745Y190596D01*
X86062Y189902D01*
X86395Y189215D01*
X86745Y188537D01*
X87112Y187868D01*
X87495Y187208D01*
X87894Y186557D01*
X88309Y185917D01*
X88739Y185286D01*
X89185Y184667D01*
X89645Y184058D01*
X90121Y183461D01*
X90611Y182876D01*
X91115Y182303D01*
X91632Y181742D01*
X92164Y181194D01*
X92708Y180660D01*
X93266Y180139D01*
X93836Y179631D01*
X94418Y179138D01*
X95013Y178659D01*
X95618Y178195D01*
X96235Y177746D01*
X96863Y177312D01*
X97501Y176893D01*
X98149Y176490D01*
X98807Y176103D01*
X99474Y175733D01*
X100150Y175378D01*
X100835Y175041D01*
X101527Y174720D01*
X102227Y174416D01*
X102935Y174130D01*
X103649Y173861D01*
X104369Y173609D01*
X105096Y173375D01*
X105828Y173159D01*
X106565Y172961D01*
X107306Y172781D01*
X108052Y172619D01*
X108802Y172475D01*
X109555Y172350D01*
X110310Y172243D01*
X111068Y172155D01*
X111828Y172085D01*
X112590Y172034D01*
X113352Y172001D01*
X114115Y171988D01*
X114878Y171992D01*
X115641Y172016D01*
X116403Y172058D01*
X117164Y172119D01*
X117923Y172198D01*
X118680Y172296D01*
X119434Y172412D01*
X120185Y172547D01*
X120933Y172700D01*
X121677Y172871D01*
X122416Y173061D01*
X123150Y173268D01*
X123880Y173493D01*
X124603Y173736D01*
X125320Y173997D01*
X126031Y174275D01*
X126735Y174571D01*
X127431Y174883D01*
X128119Y175213D01*
X128799Y175559D01*
X129471Y175922D01*
X130133Y176301D01*
X130786Y176696D01*
X131429Y177107D01*
X132062Y177534D01*
X132684Y177976D01*
X133295Y178433D01*
X133895Y178904D01*
X134483Y179391D01*
X135060Y179891D01*
X135623Y180406D01*
X136174Y180934D01*
X136712Y181475D01*
X137236Y182030D01*
X137747Y182597D01*
X138244Y183176D01*
X138726Y183768D01*
X139194Y184371D01*
X139002Y184515D01*
X138538Y183916D01*
X138059Y183330D01*
X137566Y182755D01*
X137059Y182192D01*
X136539Y181642D01*
X136005Y181105D01*
X135459Y180580D01*
X134899Y180070D01*
X134328Y179573D01*
X133744Y179091D01*
X133149Y178623D01*
X132542Y178169D01*
X131925Y177731D01*
X131297Y177307D01*
X130659Y176899D01*
X130011Y176507D01*
X129353Y176131D01*
X128687Y175771D01*
X128012Y175428D01*
X127329Y175101D01*
X126638Y174791D01*
X125940Y174497D01*
X125235Y174221D01*
X124523Y173963D01*
X123805Y173722D01*
X123082Y173498D01*
X122353Y173292D01*
X121619Y173104D01*
X120881Y172934D01*
X120139Y172782D01*
X119394Y172649D01*
X118646Y172533D01*
X117895Y172436D01*
X117141Y172358D01*
X116386Y172297D01*
X115630Y172256D01*
X114873Y172232D01*
X114116Y172228D01*
X113359Y172241D01*
X112602Y172274D01*
X111847Y172324D01*
X111093Y172394D01*
X110340Y172481D01*
X109590Y172587D01*
X108843Y172711D01*
X108100Y172854D01*
X107360Y173015D01*
X106624Y173193D01*
X105892Y173390D01*
X105166Y173604D01*
X104445Y173837D01*
X103730Y174086D01*
X103022Y174353D01*
X102320Y174638D01*
X101625Y174939D01*
X100938Y175258D01*
X100259Y175593D01*
X99588Y175944D01*
X98926Y176312D01*
X98273Y176696D01*
X97630Y177096D01*
X96997Y177511D01*
X96374Y177942D01*
X95762Y178387D01*
X95161Y178848D01*
X94571Y179323D01*
X93993Y179813D01*
X93427Y180316D01*
X92874Y180833D01*
X92334Y181364D01*
X91807Y181907D01*
X91293Y182464D01*
X90793Y183032D01*
X90307Y183613D01*
X89835Y184206D01*
X89378Y184809D01*
X88936Y185424D01*
X88509Y186050D01*
X88097Y186685D01*
X87701Y187331D01*
X87321Y187986D01*
X86957Y188650D01*
X86610Y189323D01*
X86279Y190004D01*
X85964Y190693D01*
X85667Y191390D01*
X85387Y192093D01*
X85124Y192803D01*
X84879Y193520D01*
X84651Y194242D01*
X84441Y194970D01*
X84248Y195702D01*
X84074Y196439D01*
X83918Y197180D01*
X83780Y197925D01*
X83660Y198672D01*
X83558Y199423D01*
X83475Y200176D01*
X83410Y200930D01*
X83364Y201686D01*
X83336Y202443D01*
X83327Y203200D01*
X83336Y203957D01*
X83364Y204714D01*
X83410Y205470D01*
X83475Y206224D01*
X83558Y206977D01*
X83660Y207728D01*
X83780Y208475D01*
X83918Y209220D01*
X84074Y209961D01*
X84248Y210698D01*
X84441Y211430D01*
X84651Y212158D01*
X84879Y212880D01*
X85124Y213597D01*
X85387Y214307D01*
X85667Y215010D01*
X85964Y215707D01*
X86279Y216396D01*
X86610Y217077D01*
X86957Y217750D01*
X87321Y218414D01*
X87701Y219069D01*
X88097Y219715D01*
X88509Y220350D01*
X88936Y220976D01*
X89378Y221591D01*
X89835Y222194D01*
X90307Y222787D01*
X90793Y223368D01*
X91293Y223936D01*
X91807Y224493D01*
X92334Y225036D01*
X92874Y225567D01*
X93427Y226084D01*
X93993Y226587D01*
X94571Y227077D01*
X95161Y227552D01*
X95762Y228013D01*
X96374Y228458D01*
X96997Y228889D01*
X97630Y229304D01*
X98273Y229704D01*
X98926Y230088D01*
X99588Y230456D01*
X100259Y230807D01*
X100938Y231142D01*
X101625Y231461D01*
X102320Y231762D01*
X103022Y232047D01*
X103730Y232314D01*
X104445Y232563D01*
X105166Y232796D01*
X105892Y233010D01*
X106624Y233207D01*
X107360Y233385D01*
X108100Y233546D01*
X108843Y233689D01*
X109590Y233813D01*
X110340Y233919D01*
X111093Y234006D01*
X111847Y234076D01*
X112602Y234126D01*
X113359Y234159D01*
X114116Y234172D01*
X114873Y234168D01*
X115630Y234144D01*
X116386Y234103D01*
X117141Y234042D01*
X117895Y233964D01*
X118646Y233867D01*
X119394Y233751D01*
X120139Y233618D01*
X120881Y233466D01*
X121619Y233296D01*
X122353Y233108D01*
X123082Y232902D01*
X123805Y232678D01*
X124523Y232437D01*
X125235Y232179D01*
X125940Y231903D01*
X126638Y231609D01*
X127329Y231299D01*
X128012Y230972D01*
X128687Y230629D01*
X129353Y230269D01*
X130011Y229893D01*
X130659Y229501D01*
X131297Y229093D01*
X131925Y228669D01*
X132542Y228231D01*
X133149Y227777D01*
X133744Y227309D01*
X134328Y226827D01*
X134899Y226330D01*
X135459Y225820D01*
X136005Y225295D01*
X136539Y224758D01*
X137059Y224208D01*
X137566Y223645D01*
X138059Y223070D01*
X138538Y222484D01*
X139002Y221885D01*
X138810Y221741D01*
X138349Y222335D01*
X137874Y222917D01*
X137385Y223488D01*
X136882Y224046D01*
X136366Y224592D01*
X135836Y225125D01*
X135294Y225645D01*
X134739Y226151D01*
X134172Y226644D01*
X133593Y227123D01*
X133002Y227588D01*
X132400Y228038D01*
X131787Y228473D01*
X131164Y228893D01*
X130531Y229297D01*
X129888Y229686D01*
X129236Y230059D01*
X128575Y230417D01*
X127905Y230757D01*
X127228Y231082D01*
X126542Y231390D01*
X125849Y231680D01*
X125149Y231954D01*
X124443Y232211D01*
X123731Y232450D01*
X123013Y232672D01*
X122290Y232876D01*
X121562Y233063D01*
X120830Y233231D01*
X120093Y233382D01*
X119354Y233515D01*
X118611Y233629D01*
X117866Y233725D01*
X117119Y233803D01*
X116370Y233863D01*
X115619Y233905D01*
X114868Y233928D01*
X114117Y233932D01*
X113366Y233919D01*
X112615Y233887D01*
X111865Y233836D01*
X111117Y233768D01*
X110370Y233681D01*
X109626Y233576D01*
X108885Y233452D01*
X108147Y233311D01*
X107413Y233151D01*
X106683Y232974D01*
X105957Y232779D01*
X105236Y232566D01*
X104521Y232336D01*
X103812Y232088D01*
X103109Y231823D01*
X102412Y231541D01*
X101723Y231242D01*
X101041Y230926D01*
X100367Y230593D01*
X99702Y230245D01*
X99045Y229880D01*
X98397Y229499D01*
X97759Y229102D01*
X97131Y228690D01*
X96513Y228262D01*
X95905Y227820D01*
X95309Y227363D01*
X94724Y226891D01*
X94150Y226406D01*
X93589Y225906D01*
X93040Y225393D01*
X92504Y224867D01*
X91981Y224327D01*
X91471Y223775D01*
X90975Y223211D01*
X90492Y222635D01*
X90024Y222047D01*
X89571Y221448D01*
X89132Y220838D01*
X88708Y220217D01*
X88300Y219586D01*
X87907Y218946D01*
X87530Y218296D01*
X87169Y217637D01*
X86824Y216969D01*
X86496Y216293D01*
X86184Y215610D01*
X85889Y214919D01*
X85611Y214221D01*
X85350Y213516D01*
X85107Y212805D01*
X84880Y212088D01*
X84672Y211367D01*
X84481Y210640D01*
X84308Y209909D01*
X84153Y209173D01*
X84016Y208434D01*
X83897Y207692D01*
X83796Y206948D01*
X83714Y206201D01*
X83650Y205452D01*
X83604Y204702D01*
X83576Y203951D01*
X83567Y203200D01*
X83576Y202449D01*
X83604Y201698D01*
X83650Y200948D01*
X83714Y200199D01*
X83796Y199452D01*
X83897Y198708D01*
X84016Y197966D01*
X84153Y197227D01*
X84308Y196491D01*
X84481Y195760D01*
X84672Y195033D01*
X84880Y194312D01*
X85107Y193595D01*
X85350Y192884D01*
X85611Y192179D01*
X85889Y191481D01*
X86184Y190790D01*
X86496Y190107D01*
X86824Y189431D01*
X87169Y188763D01*
X87530Y188104D01*
X87907Y187454D01*
X88300Y186814D01*
X88708Y186183D01*
X89132Y185562D01*
X89571Y184952D01*
X90024Y184353D01*
X90492Y183765D01*
X90975Y183189D01*
X91471Y182625D01*
X91981Y182073D01*
X92504Y181533D01*
X93040Y181007D01*
X93589Y180494D01*
X94150Y179994D01*
X94724Y179509D01*
X95309Y179037D01*
X95905Y178580D01*
X96513Y178138D01*
X97131Y177710D01*
X97759Y177298D01*
X98397Y176901D01*
X99045Y176520D01*
X99702Y176155D01*
X100367Y175807D01*
X101041Y175474D01*
X101723Y175158D01*
X102412Y174859D01*
X103109Y174577D01*
X103812Y174312D01*
X104521Y174064D01*
X105236Y173834D01*
X105957Y173621D01*
X106683Y173426D01*
X107413Y173249D01*
X108147Y173089D01*
X108885Y172948D01*
X109626Y172824D01*
X110370Y172719D01*
X111117Y172632D01*
X111865Y172564D01*
X112615Y172513D01*
X113366Y172481D01*
X114117Y172468D01*
X114868Y172472D01*
X115619Y172495D01*
X116370Y172537D01*
X117119Y172597D01*
X117866Y172675D01*
X118611Y172771D01*
X119354Y172885D01*
X120093Y173018D01*
X120830Y173169D01*
X121562Y173337D01*
X122290Y173524D01*
X123013Y173728D01*
X123731Y173950D01*
X124443Y174189D01*
X125149Y174446D01*
X125849Y174720D01*
X126542Y175010D01*
X127228Y175318D01*
X127905Y175643D01*
X128575Y175983D01*
X129236Y176341D01*
X129888Y176714D01*
X130531Y177103D01*
X131164Y177507D01*
X131787Y177927D01*
X132400Y178362D01*
X133002Y178812D01*
X133593Y179277D01*
X134172Y179756D01*
X134739Y180249D01*
X135294Y180755D01*
X135836Y181275D01*
X136366Y181808D01*
X136882Y182354D01*
X137385Y182912D01*
X137874Y183483D01*
X138349Y184065D01*
X138810Y184659D01*
D13*
X146558Y209042D02*
X146558Y220726D01*
X149804Y220726D01*
X149917Y220724D01*
X150030Y220718D01*
X150143Y220708D01*
X150256Y220694D01*
X150368Y220677D01*
X150479Y220655D01*
X150589Y220630D01*
X150699Y220600D01*
X150807Y220567D01*
X150914Y220530D01*
X151020Y220490D01*
X151124Y220445D01*
X151227Y220397D01*
X151328Y220346D01*
X151427Y220291D01*
X151524Y220233D01*
X151619Y220171D01*
X151712Y220106D01*
X151802Y220038D01*
X151890Y219967D01*
X151976Y219892D01*
X152059Y219815D01*
X152139Y219735D01*
X152216Y219652D01*
X152291Y219566D01*
X152362Y219478D01*
X152430Y219388D01*
X152495Y219295D01*
X152557Y219200D01*
X152615Y219103D01*
X152670Y219004D01*
X152721Y218903D01*
X152769Y218800D01*
X152814Y218696D01*
X152854Y218590D01*
X152891Y218483D01*
X152924Y218375D01*
X152954Y218265D01*
X152979Y218155D01*
X153001Y218044D01*
X153018Y217932D01*
X153032Y217819D01*
X153042Y217706D01*
X153048Y217593D01*
X153050Y217480D01*
X153049Y217480D02*
X153049Y212288D01*
X153050Y212288D02*
X153048Y212175D01*
X153042Y212062D01*
X153032Y211949D01*
X153018Y211836D01*
X153001Y211724D01*
X152979Y211613D01*
X152954Y211503D01*
X152924Y211393D01*
X152891Y211285D01*
X152854Y211178D01*
X152814Y211072D01*
X152769Y210968D01*
X152721Y210865D01*
X152670Y210764D01*
X152615Y210665D01*
X152557Y210568D01*
X152495Y210473D01*
X152430Y210380D01*
X152362Y210290D01*
X152291Y210202D01*
X152216Y210116D01*
X152139Y210033D01*
X152059Y209953D01*
X151976Y209876D01*
X151890Y209801D01*
X151802Y209730D01*
X151712Y209662D01*
X151619Y209597D01*
X151524Y209535D01*
X151427Y209477D01*
X151328Y209422D01*
X151227Y209371D01*
X151124Y209323D01*
X151020Y209278D01*
X150914Y209238D01*
X150807Y209201D01*
X150699Y209168D01*
X150589Y209138D01*
X150479Y209113D01*
X150368Y209091D01*
X150256Y209074D01*
X150143Y209060D01*
X150030Y209050D01*
X149917Y209044D01*
X149804Y209042D01*
X146558Y209042D01*
X158369Y218130D02*
X161615Y220726D01*
X161615Y209042D01*
X164860Y209042D02*
X158369Y209042D01*
D14*
X19518Y139179D02*
X19344Y48999D01*
X19500Y139250D02*
X165500Y139250D01*
X165500Y49250D01*
X19500Y49250D01*
D13*
X55203Y37592D02*
X55203Y28504D01*
X55202Y28504D02*
X55200Y28405D01*
X55194Y28305D01*
X55185Y28206D01*
X55172Y28108D01*
X55155Y28010D01*
X55134Y27912D01*
X55109Y27816D01*
X55081Y27721D01*
X55049Y27627D01*
X55014Y27534D01*
X54975Y27442D01*
X54932Y27352D01*
X54887Y27264D01*
X54837Y27177D01*
X54785Y27093D01*
X54729Y27010D01*
X54671Y26930D01*
X54609Y26852D01*
X54544Y26777D01*
X54476Y26704D01*
X54406Y26634D01*
X54333Y26566D01*
X54258Y26501D01*
X54180Y26439D01*
X54100Y26381D01*
X54017Y26325D01*
X53933Y26273D01*
X53846Y26223D01*
X53758Y26178D01*
X53668Y26135D01*
X53576Y26096D01*
X53483Y26061D01*
X53389Y26029D01*
X53294Y26001D01*
X53198Y25976D01*
X53100Y25955D01*
X53002Y25938D01*
X52904Y25925D01*
X52805Y25916D01*
X52705Y25910D01*
X52606Y25908D01*
X51308Y25908D01*
X60476Y34996D02*
X63722Y37592D01*
X63722Y25908D01*
X66967Y25908D02*
X60476Y25908D01*
D15*
X232700Y241600D02*
X244000Y241600D01*
X244000Y215600D02*
X232700Y215600D01*
X232700Y228600D02*
X216500Y228600D01*
X232700Y241600D02*
X232700Y215600D01*
X289400Y241600D02*
X300700Y241600D01*
X300700Y215600D02*
X289400Y215600D01*
X300700Y228600D02*
X316900Y228600D01*
X300700Y241600D02*
X300700Y215600D01*
D13*
X279908Y241808D02*
X279908Y253492D01*
X283154Y253492D01*
X283267Y253490D01*
X283380Y253484D01*
X283493Y253474D01*
X283606Y253460D01*
X283718Y253443D01*
X283829Y253421D01*
X283939Y253396D01*
X284049Y253366D01*
X284157Y253333D01*
X284264Y253296D01*
X284370Y253256D01*
X284474Y253211D01*
X284577Y253163D01*
X284678Y253112D01*
X284777Y253057D01*
X284874Y252999D01*
X284969Y252937D01*
X285062Y252872D01*
X285152Y252804D01*
X285240Y252733D01*
X285326Y252658D01*
X285409Y252581D01*
X285489Y252501D01*
X285566Y252418D01*
X285641Y252332D01*
X285712Y252244D01*
X285780Y252154D01*
X285845Y252061D01*
X285907Y251966D01*
X285965Y251869D01*
X286020Y251770D01*
X286071Y251669D01*
X286119Y251566D01*
X286164Y251462D01*
X286204Y251356D01*
X286241Y251249D01*
X286274Y251141D01*
X286304Y251031D01*
X286329Y250921D01*
X286351Y250810D01*
X286368Y250698D01*
X286382Y250585D01*
X286392Y250472D01*
X286398Y250359D01*
X286400Y250246D01*
X286398Y250133D01*
X286392Y250020D01*
X286382Y249907D01*
X286368Y249794D01*
X286351Y249682D01*
X286329Y249571D01*
X286304Y249461D01*
X286274Y249351D01*
X286241Y249243D01*
X286204Y249136D01*
X286164Y249030D01*
X286119Y248926D01*
X286071Y248823D01*
X286020Y248722D01*
X285965Y248623D01*
X285907Y248526D01*
X285845Y248431D01*
X285780Y248338D01*
X285712Y248248D01*
X285641Y248160D01*
X285566Y248074D01*
X285489Y247991D01*
X285409Y247911D01*
X285326Y247834D01*
X285240Y247759D01*
X285152Y247688D01*
X285062Y247620D01*
X284969Y247555D01*
X284874Y247493D01*
X284777Y247435D01*
X284678Y247380D01*
X284577Y247329D01*
X284474Y247281D01*
X284370Y247236D01*
X284264Y247196D01*
X284157Y247159D01*
X284049Y247126D01*
X283939Y247096D01*
X283829Y247071D01*
X283718Y247049D01*
X283606Y247032D01*
X283493Y247018D01*
X283380Y247008D01*
X283267Y247002D01*
X283154Y247000D01*
X283154Y247001D02*
X279908Y247001D01*
X283803Y247001D02*
X286399Y241808D01*
X291264Y250896D02*
X294510Y253492D01*
X294510Y241808D01*
X297755Y241808D02*
X291264Y241808D01*
D14*
X250400Y116900D02*
X250400Y60900D01*
X250400Y116900D02*
X308400Y116900D01*
X308400Y60900D01*
X250400Y60900D01*
D13*
X240751Y77215D02*
X240751Y80460D01*
X240750Y80460D02*
X240752Y80573D01*
X240758Y80686D01*
X240768Y80799D01*
X240782Y80912D01*
X240799Y81024D01*
X240821Y81135D01*
X240846Y81245D01*
X240876Y81355D01*
X240909Y81463D01*
X240946Y81570D01*
X240986Y81676D01*
X241031Y81780D01*
X241079Y81883D01*
X241130Y81984D01*
X241185Y82083D01*
X241243Y82180D01*
X241305Y82275D01*
X241370Y82368D01*
X241438Y82458D01*
X241509Y82546D01*
X241584Y82632D01*
X241661Y82715D01*
X241741Y82795D01*
X241824Y82872D01*
X241910Y82947D01*
X241998Y83018D01*
X242088Y83086D01*
X242181Y83151D01*
X242276Y83213D01*
X242373Y83271D01*
X242472Y83326D01*
X242573Y83377D01*
X242676Y83425D01*
X242780Y83470D01*
X242886Y83510D01*
X242993Y83547D01*
X243101Y83580D01*
X243211Y83610D01*
X243321Y83635D01*
X243432Y83657D01*
X243544Y83674D01*
X243657Y83688D01*
X243770Y83698D01*
X243883Y83704D01*
X243996Y83706D01*
X244109Y83704D01*
X244222Y83698D01*
X244335Y83688D01*
X244448Y83674D01*
X244560Y83657D01*
X244671Y83635D01*
X244781Y83610D01*
X244891Y83580D01*
X244999Y83547D01*
X245106Y83510D01*
X245212Y83470D01*
X245316Y83425D01*
X245419Y83377D01*
X245520Y83326D01*
X245619Y83271D01*
X245716Y83213D01*
X245811Y83151D01*
X245904Y83086D01*
X245994Y83018D01*
X246082Y82947D01*
X246168Y82872D01*
X246251Y82795D01*
X246331Y82715D01*
X246408Y82632D01*
X246483Y82546D01*
X246554Y82458D01*
X246622Y82368D01*
X246687Y82275D01*
X246749Y82180D01*
X246807Y82083D01*
X246862Y81984D01*
X246913Y81883D01*
X246961Y81780D01*
X247006Y81676D01*
X247046Y81570D01*
X247083Y81463D01*
X247116Y81355D01*
X247146Y81245D01*
X247171Y81135D01*
X247193Y81024D01*
X247210Y80912D01*
X247224Y80799D01*
X247234Y80686D01*
X247240Y80573D01*
X247242Y80460D01*
X247242Y77215D01*
X235558Y77215D01*
X235558Y80460D01*
X235560Y80561D01*
X235566Y80661D01*
X235576Y80761D01*
X235589Y80861D01*
X235607Y80960D01*
X235628Y81059D01*
X235653Y81156D01*
X235682Y81253D01*
X235715Y81348D01*
X235751Y81442D01*
X235791Y81534D01*
X235834Y81625D01*
X235881Y81714D01*
X235931Y81801D01*
X235985Y81887D01*
X236042Y81970D01*
X236102Y82050D01*
X236165Y82129D01*
X236232Y82205D01*
X236301Y82278D01*
X236373Y82348D01*
X236447Y82416D01*
X236524Y82481D01*
X236604Y82542D01*
X236686Y82601D01*
X236770Y82656D01*
X236856Y82708D01*
X236944Y82757D01*
X237034Y82802D01*
X237126Y82844D01*
X237219Y82882D01*
X237314Y82916D01*
X237409Y82947D01*
X237506Y82974D01*
X237604Y82997D01*
X237703Y83017D01*
X237803Y83032D01*
X237903Y83044D01*
X238003Y83052D01*
X238104Y83056D01*
X238204Y83056D01*
X238305Y83052D01*
X238405Y83044D01*
X238505Y83032D01*
X238605Y83017D01*
X238704Y82997D01*
X238802Y82974D01*
X238899Y82947D01*
X238994Y82916D01*
X239089Y82882D01*
X239182Y82844D01*
X239274Y82802D01*
X239364Y82757D01*
X239452Y82708D01*
X239538Y82656D01*
X239622Y82601D01*
X239704Y82542D01*
X239784Y82481D01*
X239861Y82416D01*
X239935Y82348D01*
X240007Y82278D01*
X240076Y82205D01*
X240143Y82129D01*
X240206Y82050D01*
X240266Y81970D01*
X240323Y81887D01*
X240377Y81801D01*
X240427Y81714D01*
X240474Y81625D01*
X240517Y81534D01*
X240557Y81442D01*
X240593Y81348D01*
X240626Y81253D01*
X240655Y81156D01*
X240680Y81059D01*
X240701Y80960D01*
X240719Y80861D01*
X240732Y80761D01*
X240742Y80661D01*
X240748Y80561D01*
X240750Y80460D01*
X238154Y88094D02*
X235558Y91340D01*
X247242Y91340D01*
X247242Y94585D02*
X247242Y88094D01*
D16*
X0Y0D02*
X368300Y0D01*
X368300Y266700D01*
X0Y266700D01*
X0Y0D01*
M02*
